<?xml version="1.0" encoding="UTF-8"?>
<!-- Generator: Adobe Illustrator 23.0.3, SVG Export Plug-In . SVG Version: 6.00 Build 0)  -->
<svg id="svg6738" style="enable-background:new 0 0 330.8 315.6;" version="1.1" viewBox="0 0 330.8 315.6" x="0px" xml:space="preserve" xmlns="http://www.w3.org/2000/svg" xmlns:cc="http://creativecommons.org/ns#" xmlns:dc="http://purl.org/dc/elements/1.1/" xmlns:openbadges="http://openbadges.org" xmlns:rdf="http://www.w3.org/1999/02/22-rdf-syntax-ns#" xmlns:xlink="http://www.w3.org/1999/xlink" y="0px"><openbadges:assertion verify="http://backpack.openbadges.org/baker?assertion=https://data.v2019.oqs-cdn.com/openbadges/earner_2AOWZ0.json"/>
<style type="text/css">
	.st0{fill:none;stroke:#B1DAEC;stroke-width:18.2;stroke-linecap:round;stroke-linejoin:round;}
	.st1{fill:#363940;}
	.st2{fill:#B1DAEC;}
	.st3{font-family:'Aller-Bold';}
	.st4{font-size:40px;}
	.st5{fill:none;}
	.st6{fill:#2B7883;}
	.st7{fill:#2D9E9F;}
	.st8{fill:#309751;}
	.st9{fill:#63BC51;}
	.st10{fill:#FFFFFF;}
	.st11{font-family:'Aller';}
	.st12{font-size:22.3159px;}
	.st13{enable-background:new    ;}
	.st14{fill:#76909D;}
	.st15{fill:#F4E20A;}
</style>
<path class="st0" d="M26.7,9.1h277.4c5.5,0,10,4.5,10,10v277.4c0,5.5-4.5,10-10,10H26.7c-5.5,0-10-4.5-10-10V19.1  C16.7,13.6,21.2,9.1,26.7,9.1z" id="rect4432"/>
<path class="st1" d="M28.6,11.2h273.5c5.4,0,9.8,4.4,9.8,9.8v273.5c0,5.4-4.4,9.8-9.8,9.8H28.6  c-5.4,0-9.8-4.4-9.8-9.8V21C18.8,15.6,23.2,11.2,28.6,11.2z" id="rect4434"/>
<rect class="st2" height="61.6" id="rect4436" width="330.8" x="0" y="141"/>
<text class="st1 st3 st4" transform="matrix(1 0 0 1 70.4499 184.3406)">CONFIRME</text>
<rect class="st5" height="67.9" id="rect4454" width="256.4" x="31.8" y="56.2"/>
<path class="st6" d="M80.4,79.4L78,81.8l-22.7,22.7c-0.5,0.5-1.4,0.7-2.1-0.1l-4.4-4.4c-0.5-0.6-0.6-1.4,0.1-2  l18.6-18.5L80.4,79.4L80.4,79.4z" id="path4458"/>
<path class="st7" d="M80.4,79.4l10.1,10.2c0.5,0.5,0.5,1.6-0.1,2.2L86,96.2c-0.5,0.5-1.4,0.5-2-0.1L67.3,79.4  L80.4,79.4L80.4,79.4z" id="path4462"/>
<path class="st8" d="M46.6,84.1l2.3-2.3l22.3-22.3c0.5-0.5,1.5-0.6,2.1,0.1l4.4,4.4c0.6,0.6,0.6,1.4-0.1,2L59.5,84.2  L46.6,84.1L46.6,84.1z" id="path4466"/>
<path class="st9" d="M46.5,84.1L36.4,74c-0.5-0.5-0.5-1.6,0.1-2.2l4.4-4.4c0.5-0.5,1.4-0.5,2,0.1l16.7,16.7L46.5,84.1  L46.5,84.1z" id="path4470"/>
<path class="st10" d="M112.7,92.1c2.6,0,4.5-0.9,5.8-2.7c1.2-1.8,1.9-4.4,1.9-7.6c0-3.2-0.6-5.8-1.9-7.6  s-3.2-2.7-5.8-2.7s-4.5,0.9-5.7,2.7c-1.2,1.8-1.8,4.3-1.8,7.6c0,3.3,0.6,5.8,1.8,7.6C108.1,91.2,110.1,92.1,112.7,92.1 M112.7,96.5  c-2.3,0-4.2-0.4-5.9-1.1c-1.7-0.7-3.1-1.8-4.2-3.1s-2-2.9-2.5-4.6c-0.5-1.8-0.8-3.7-0.8-5.8c0-2.1,0.3-4,0.8-5.8  c0.6-1.8,1.4-3.3,2.5-4.6c1.1-1.3,2.5-2.4,4.2-3.1c1.7-0.8,3.7-1.2,5.9-1.2s4.2,0.4,5.9,1.2c1.7,0.8,3.1,1.8,4.2,3.1  c1.1,1.3,2,2.9,2.5,4.6c0.5,1.8,0.8,3.7,0.8,5.8c0,2.1-0.3,4-0.8,5.8c-0.5,1.8-1.4,3.3-2.5,4.6c-1.1,1.3-2.5,2.3-4.2,3.1  C116.9,96.1,114.9,96.5,112.7,96.5" id="path4474"/>
<path class="st10" d="M135.3,91.2c0.7,0.3,1.5,0.4,2.2,0.5c0.8,0.1,1.7,0.2,2.9,0.2c1.4,0,2.6-0.2,3.7-0.6  c1.1-0.4,2.1-1.1,2.9-1.9c0.8-0.9,1.4-2,1.9-3.3c0.5-1.3,0.7-2.9,0.7-4.7c0-2.9-0.6-5.2-1.7-7c-1.1-1.7-2.9-2.6-5.5-2.6  c-0.9,0-1.8,0.2-2.7,0.5c-0.9,0.3-1.6,0.8-2.3,1.5c-0.7,0.7-1.2,1.5-1.6,2.5c-0.4,1-0.6,2.2-0.6,3.6L135.3,91.2L135.3,91.2z   M129.7,67.8c0.4-0.1,0.8-0.1,1.2-0.2c0.4,0,0.8-0.1,1.2-0.1c0.4,0,0.8,0,1.2,0.1c0.4,0,0.8,0.1,1.2,0.2c0,0.1,0.1,0.3,0.1,0.7  c0.1,0.4,0.1,0.8,0.2,1.2c0.1,0.4,0.1,0.9,0.2,1.3c0.1,0.4,0.1,0.7,0.1,0.8c0.4-0.6,0.8-1.1,1.4-1.7c0.5-0.5,1.2-1,1.9-1.5  c0.7-0.4,1.6-0.8,2.5-1c0.9-0.3,2-0.4,3.1-0.4c1.7,0,3.3,0.3,4.7,0.8c1.4,0.6,2.7,1.4,3.7,2.5c1,1.1,1.8,2.6,2.4,4.4  c0.6,1.8,0.9,3.9,0.9,6.3c0,4.8-1.4,8.6-4,11.3c-2.7,2.7-6.5,4.1-11.5,4.1c-0.8,0-1.7-0.1-2.6-0.2c-0.9-0.1-1.6-0.3-2.3-0.4v10.8  c-0.5,0.1-0.9,0.1-1.4,0.2c-0.5,0-1,0.1-1.4,0.1c-0.4,0-0.9,0-1.4-0.1c-0.5,0-1-0.1-1.4-0.2L129.7,67.8L129.7,67.8z" id="path4478"/>
<path class="st10" d="M179.3,72.1c-0.5-0.1-1-0.2-1.3-0.2c-0.4-0.1-0.7-0.1-1-0.1c-0.3,0-0.6,0-1-0.1  c-0.3,0-0.7,0-1.1,0c-1.7,0-3.1,0.3-4.4,0.8c-1.2,0.5-2.3,1.3-3.1,2.3c-0.8,1-1.4,2.2-1.8,3.5c-0.4,1.4-0.6,2.8-0.6,4.5  c0,1.6,0.2,3.1,0.7,4.2c0.5,1.2,1.1,2.1,1.9,2.9c0.8,0.7,1.8,1.3,2.9,1.6c1.1,0.3,2.3,0.5,3.6,0.5c1,0,1.9-0.1,2.8-0.2  c0.9-0.1,1.7-0.3,2.5-0.5L179.3,72.1L179.3,72.1z M179.3,95.8c-0.8,0.2-1.6,0.3-2.5,0.4c-0.9,0.1-1.9,0.2-3,0.2  c-2,0-3.8-0.2-5.6-0.7c-1.8-0.5-3.3-1.2-4.7-2.3c-1.3-1.1-2.4-2.5-3.2-4.3c-0.8-1.8-1.2-4-1.2-6.6c0-2.3,0.4-4.3,1.1-6.2  c0.7-1.9,1.8-3.5,3.1-4.9c1.4-1.4,3-2.4,4.9-3.2c1.9-0.7,4.1-1.1,6.5-1.1c2.1,0,3.9,0.1,5.4,0.3c1.5,0.2,3,0.5,4.5,0.9v38.5  c-0.4,0.1-0.9,0.1-1.4,0.2c-0.5,0-1,0.1-1.4,0.1c-0.4,0-0.9,0-1.4-0.1c-0.5,0-1-0.1-1.4-0.2L179.3,95.8L179.3,95.8z" id="path4482"/>
<path class="st10" d="M188.6,67.7c0.4-0.1,0.9-0.1,1.4-0.2c0.5,0,1-0.1,1.4-0.1c0.4,0,0.9,0,1.4,0.1  c0.5,0,1,0.1,1.4,0.2v15.4c0,1.8,0.2,3.2,0.5,4.3c0.3,1.2,0.8,2.1,1.5,2.7c0.7,0.7,1.5,1.1,2.5,1.4c1,0.3,2.1,0.4,3.4,0.4  c1.9,0,3.6-0.2,4.9-0.6V67.7c0.4-0.1,0.9-0.1,1.4-0.2c0.5,0,1-0.1,1.4-0.1c0.4,0,0.9,0,1.4,0.1c0.5,0,1,0.1,1.4,0.2v27.2  c-1.3,0.4-2.9,0.7-4.7,1c-1.8,0.3-3.7,0.5-5.7,0.5c-1.8,0-3.6-0.2-5.2-0.5c-1.6-0.3-3.1-0.9-4.3-1.9c-1.2-0.9-2.2-2.3-2.9-4  c-0.7-1.7-1.1-4-1.1-6.8L188.6,67.7L188.6,67.7z" id="path4486"/>
<path class="st10" d="M233.4,82.6c-0.6-0.1-1.3-0.1-2.2-0.2c-0.9-0.1-1.6-0.1-2.2-0.1c-2.3,0-4.1,0.4-5.4,1.3  c-1.2,0.8-1.8,2.1-1.8,3.8c0,1.1,0.2,2,0.6,2.6c0.4,0.6,0.9,1.1,1.6,1.4c0.6,0.3,1.3,0.5,2.1,0.6c0.8,0.1,1.5,0.1,2.2,0.1  c0.9,0,1.8,0,2.7-0.1c0.9-0.1,1.7-0.2,2.5-0.4L233.4,82.6L233.4,82.6z M233.4,77.3c0-2.2-0.6-3.6-1.7-4.5c-1.1-0.8-2.8-1.3-4.9-1.3  c-1.3,0-2.6,0.1-3.7,0.3c-1.2,0.2-2.3,0.5-3.4,0.8c-0.7-1.2-1.1-2.6-1.1-4.3c1.3-0.4,2.7-0.7,4.2-0.9c1.5-0.2,3-0.3,4.5-0.3  c3.8,0,6.6,0.8,8.6,2.5c2,1.7,2.9,4.3,2.9,8V95c-1.3,0.3-2.9,0.6-4.8,0.9c-1.9,0.3-3.8,0.5-5.8,0.5c-1.9,0-3.5-0.2-5-0.5  c-1.5-0.3-2.8-0.9-3.8-1.6c-1-0.7-1.8-1.7-2.4-2.8s-0.8-2.5-0.8-4.1c0-1.6,0.3-2.9,1-4.1c0.7-1.2,1.6-2.2,2.7-3  c1.1-0.8,2.4-1.4,3.9-1.8c1.5-0.4,3-0.6,4.6-0.6c1.2,0,2.2,0,3,0.1c0.8,0.1,1.4,0.1,2,0.2L233.4,77.3L233.4,77.3z" id="path4490"/>
<path class="st10" d="M243.3,90.7c1,0.4,2.1,0.7,3.4,1c1.2,0.2,2.4,0.4,3.7,0.4c0.9,0,1.7-0.1,2.5-0.3  c0.8-0.2,1.5-0.5,2.1-0.8c0.6-0.4,1.1-0.8,1.4-1.3c0.4-0.5,0.5-1.1,0.5-1.8c0-0.7-0.1-1.3-0.4-1.8c-0.3-0.5-0.7-0.9-1.1-1.2  c-0.5-0.3-1-0.6-1.6-0.9c-0.6-0.2-1.3-0.5-2-0.7l-2-0.7c-2.4-0.9-4.2-1.9-5.3-3c-1.1-1.1-1.6-2.6-1.6-4.4c0-2.5,0.9-4.4,2.7-5.9  c1.8-1.5,4.5-2.2,8.1-2.2c1.5,0,2.9,0.1,4.3,0.4c1.4,0.3,2.6,0.6,3.7,1c-0.1,0.7-0.2,1.5-0.4,2.2c-0.2,0.7-0.5,1.4-0.8,2  c-0.8-0.3-1.8-0.6-3-0.8c-1.1-0.3-2.4-0.4-3.7-0.4c-1.4,0-2.6,0.2-3.7,0.7c-1.1,0.5-1.6,1.3-1.6,2.5c0,0.6,0.1,1.1,0.4,1.6  c0.3,0.4,0.6,0.8,1.1,1.1c0.5,0.3,1,0.6,1.6,0.8c0.6,0.2,1.2,0.4,1.9,0.7l2.5,0.8c0.9,0.3,1.8,0.6,2.6,1c0.8,0.4,1.5,0.9,2.1,1.5  c0.6,0.6,1.1,1.3,1.4,2.2c0.4,0.9,0.5,1.9,0.5,3.1c0,1.3-0.3,2.6-0.8,3.7c-0.6,1.1-1.4,2.1-2.4,2.8c-1,0.8-2.3,1.4-3.8,1.8  c-1.5,0.4-3.1,0.7-4.9,0.7c-1.8,0-3.4-0.1-4.8-0.4c-1.4-0.2-2.6-0.6-3.8-1c0.1-0.7,0.2-1.5,0.5-2.2C242.7,92.2,243,91.4,243.3,90.7" id="path4494"/>
<path class="st10" d="M268.9,72.3h-4.4l-0.2-0.8L274,61h0.5V68h7.4c0.2,0.6,0.2,1.3,0.2,2.1c0,0.4,0,0.8-0.1,1.2  c0,0.4-0.1,0.7-0.2,1.1h-7.4v12.8c0,1.5,0.1,2.7,0.2,3.7c0.1,0.9,0.4,1.6,0.7,2.1c0.3,0.5,0.8,0.8,1.3,1c0.6,0.2,1.2,0.2,2.1,0.2  c0.6,0,1.2,0,1.8-0.1c0.6-0.1,1.1-0.2,1.5-0.3c0.3,0.7,0.4,1.5,0.5,2.2c0.1,0.8,0.1,1.4,0.1,2c-0.8,0.2-1.5,0.3-2.4,0.4  c-0.8,0.1-1.7,0.1-2.7,0.1c-2.7,0-4.8-0.6-6.4-1.9c-1.5-1.3-2.3-3.4-2.3-6.3L268.9,72.3L268.9,72.3z" id="path4498"/>
<text class="st10 st11 st12" transform="matrix(1 0 0 1 281.3121 59.5115)">®</text>
<path class="st0" d="M26.7,9.1h277.4c5.5,0,10,4.5,10,10v277.4c0,5.5-4.5,10-10,10H26.7c-5.5,0-10-4.5-10-10V19.1  C16.7,13.6,21.2,9.1,26.7,9.1z" id="rect4506"/>
<path class="st1" d="M28.6,11.2h273.5c5.4,0,9.8,4.4,9.8,9.8v273.5c0,5.4-4.4,9.8-9.8,9.8H28.6  c-5.4,0-9.8-4.4-9.8-9.8V21C18.8,15.6,23.2,11.2,28.6,11.2z" id="rect4508"/>
<rect class="st2" height="61.6" id="rect4510" width="330.8" x="0" y="141"/>
<g class="st13">
	<path class="st1" d="M102.5,155.6c0.6-0.1,1.1-0.1,1.6-0.2c0.5,0,1.1-0.1,1.7-0.1c0.5,0,1.1,0,1.6,0.1c0.5,0,1.1,0.1,1.7,0.2   l9,28.8c-1.1,0.2-2.2,0.2-3.2,0.2c-1,0-2-0.1-3-0.2l-1.6-5.8h-9.5l-1.6,5.8c-1,0.2-1.9,0.2-2.8,0.2c-1,0-2-0.1-2.9-0.2L102.5,155.6   z M108.9,173.7l-3.3-12.1l-3.5,12.1H108.9z"/>
	<path class="st1" d="M118.9,155.6c0.5-0.1,1-0.1,1.6-0.2c0.6-0.1,1.1-0.1,1.6-0.1c1,0,2.1,0.1,3.2,0.2l6.3,22.7l6.4-22.7   c0.5-0.1,1-0.1,1.5-0.2c0.5,0,1,0,1.5,0c0.5,0,1,0,1.5,0c0.5,0,1,0.1,1.5,0.2l-9.3,28.8c-0.6,0.1-1.1,0.1-1.6,0.2s-1.1,0.1-1.7,0.1   c-0.5,0-1.1,0-1.6-0.1c-0.5,0-1.1-0.1-1.7-0.2L118.9,155.6z"/>
	<path class="st1" d="M153.8,155.6c0.6-0.1,1.1-0.1,1.6-0.2c0.5,0,1.1-0.1,1.7-0.1c0.5,0,1.1,0,1.6,0.1c0.5,0,1.1,0.1,1.7,0.2   l9,28.8c-1.1,0.2-2.2,0.2-3.2,0.2c-1,0-2-0.1-3-0.2l-1.6-5.8H152l-1.6,5.8c-1,0.2-1.9,0.2-2.8,0.2c-1,0-2-0.1-2.9-0.2L153.8,155.6z    M160.2,173.7l-3.3-12.1l-3.5,12.1H160.2z"/>
	<path class="st1" d="M172.5,155.6c0.8-0.2,1.6-0.2,2.4-0.2c0.8,0,1.6,0.1,2.5,0.2l11.1,18.3v-18.3c1-0.2,1.9-0.2,2.8-0.2   c0.8,0,1.6,0.1,2.4,0.2v28.8c-0.9,0.2-1.6,0.2-2.3,0.2c-0.7,0-1.6-0.1-2.4-0.2l-11.2-18.3v18.3c-0.9,0.2-1.7,0.2-2.6,0.2   c-0.9,0-1.7-0.1-2.6-0.2V155.6z"/>
	<path class="st1" d="M218.2,178.9c0.3,0.7,0.6,1.5,0.9,2.3c0.2,0.8,0.4,1.6,0.5,2.4c-1.4,0.5-2.6,0.8-3.7,1   c-1.1,0.2-2.3,0.2-3.6,0.2c-2.3,0-4.3-0.4-6-1.1c-1.7-0.7-3.1-1.8-4.3-3.1c-1.2-1.3-2-2.9-2.6-4.7c-0.6-1.8-0.9-3.8-0.9-5.9   c0-2.1,0.3-4.1,0.9-5.9c0.6-1.8,1.5-3.4,2.7-4.7c1.2-1.3,2.6-2.4,4.3-3.1c1.7-0.7,3.6-1.1,5.8-1.1c1.3,0,2.5,0.1,3.5,0.2   s2.2,0.5,3.5,1c-0.1,0.8-0.2,1.6-0.5,2.3s-0.6,1.5-0.9,2.3c-0.9-0.3-1.8-0.5-2.5-0.7c-0.7-0.1-1.6-0.2-2.6-0.2   c-2.6,0-4.5,0.8-5.9,2.5c-1.4,1.7-2.1,4.1-2.1,7.4c0,6.5,2.8,9.8,8.3,9.8c1,0,1.9-0.1,2.6-0.2C216.5,179.4,217.3,179.2,218.2,178.9   z"/>
	<path class="st1" d="M224,155.6h16.3c0.2,0.8,0.2,1.6,0.2,2.4c0,0.9-0.1,1.7-0.2,2.5h-10.5v6.2h8.3c0.2,0.9,0.2,1.7,0.2,2.5   c0,0.9-0.1,1.7-0.2,2.5h-8.3v7.6h10.8c0.2,0.8,0.2,1.6,0.2,2.4c0,0.9-0.1,1.7-0.2,2.5H224V155.6z M231.5,148.9   c0.6-0.1,1.2-0.1,1.9-0.2c0.7-0.1,1.4-0.1,2.1-0.1c0.7,0,1.4,0,2,0.1c0.6,0.1,1.2,0.1,1.6,0.2l-5.9,4.2c-0.5,0.1-1,0.2-1.4,0.2   c-0.5,0-0.9,0-1.4,0c-1,0-2-0.1-2.9-0.2L231.5,148.9z"/>
</g>
<rect class="st5" height="67.9" id="rect4528" width="256.4" x="31.8" y="56.2"/>
<path class="st6" d="M80.4,79.4L78,81.8l-22.7,22.7c-0.5,0.5-1.4,0.7-2.1-0.1l-4.4-4.4c-0.5-0.6-0.6-1.4,0.1-2  l18.6-18.5L80.4,79.4L80.4,79.4z" id="path4532"/>
<path class="st7" d="M80.4,79.4l10.1,10.2c0.5,0.5,0.5,1.6-0.1,2.2L86,96.2c-0.5,0.5-1.4,0.5-2-0.1L67.3,79.4  L80.4,79.4L80.4,79.4z" id="path4536"/>
<path class="st8" d="M46.6,84.1l2.3-2.3l22.3-22.3c0.5-0.5,1.5-0.6,2.1,0.1l4.4,4.4c0.6,0.6,0.6,1.4-0.1,2L59.5,84.2  L46.6,84.1L46.6,84.1z" id="path4540"/>
<path class="st9" d="M46.5,84.1L36.4,74c-0.5-0.5-0.5-1.6,0.1-2.2l4.4-4.4c0.5-0.5,1.4-0.5,2,0.1l16.7,16.7L46.5,84.1  L46.5,84.1z" id="path4544"/>
<path class="st10" d="M112.7,92.1c2.6,0,4.5-0.9,5.8-2.7c1.2-1.8,1.9-4.4,1.9-7.6c0-3.2-0.6-5.8-1.9-7.6  s-3.2-2.7-5.8-2.7s-4.5,0.9-5.7,2.7c-1.2,1.8-1.8,4.3-1.8,7.6c0,3.3,0.6,5.8,1.8,7.6C108.1,91.2,110.1,92.1,112.7,92.1 M112.7,96.5  c-2.3,0-4.2-0.4-5.9-1.1c-1.7-0.7-3.1-1.8-4.2-3.1s-2-2.9-2.5-4.6c-0.5-1.8-0.8-3.7-0.8-5.8c0-2.1,0.3-4,0.8-5.8  c0.6-1.8,1.4-3.3,2.5-4.6c1.1-1.3,2.5-2.4,4.2-3.1c1.7-0.8,3.7-1.2,5.9-1.2s4.2,0.4,5.9,1.2c1.7,0.8,3.1,1.8,4.2,3.1  c1.1,1.3,2,2.9,2.5,4.6c0.5,1.8,0.8,3.7,0.8,5.8c0,2.1-0.3,4-0.8,5.8c-0.5,1.8-1.4,3.3-2.5,4.6c-1.1,1.3-2.5,2.3-4.2,3.1  C116.9,96.1,114.9,96.5,112.7,96.5" id="path4548"/>
<path class="st10" d="M135.3,91.2c0.7,0.3,1.5,0.4,2.2,0.5c0.8,0.1,1.7,0.2,2.9,0.2c1.4,0,2.6-0.2,3.7-0.6  c1.1-0.4,2.1-1.1,2.9-1.9c0.8-0.9,1.4-2,1.9-3.3c0.5-1.3,0.7-2.9,0.7-4.7c0-2.9-0.6-5.2-1.7-7c-1.1-1.7-2.9-2.6-5.5-2.6  c-0.9,0-1.8,0.2-2.7,0.5c-0.9,0.3-1.6,0.8-2.3,1.5c-0.7,0.7-1.2,1.5-1.6,2.5c-0.4,1-0.6,2.2-0.6,3.6L135.3,91.2L135.3,91.2z   M129.7,67.8c0.4-0.1,0.8-0.1,1.2-0.2c0.4,0,0.8-0.1,1.2-0.1c0.4,0,0.8,0,1.2,0.1c0.4,0,0.8,0.1,1.2,0.2c0,0.1,0.1,0.3,0.1,0.7  c0.1,0.4,0.1,0.8,0.2,1.2c0.1,0.4,0.1,0.9,0.2,1.3c0.1,0.4,0.1,0.7,0.1,0.8c0.4-0.6,0.8-1.1,1.4-1.7c0.5-0.5,1.2-1,1.9-1.5  c0.7-0.4,1.6-0.8,2.5-1c0.9-0.3,2-0.4,3.1-0.4c1.7,0,3.3,0.3,4.7,0.8c1.4,0.6,2.7,1.4,3.7,2.5c1,1.1,1.8,2.6,2.4,4.4  c0.6,1.8,0.9,3.9,0.9,6.3c0,4.8-1.4,8.6-4,11.3c-2.7,2.7-6.5,4.1-11.5,4.1c-0.8,0-1.7-0.1-2.6-0.2c-0.9-0.1-1.6-0.3-2.3-0.4v10.8  c-0.5,0.1-0.9,0.1-1.4,0.2c-0.5,0-1,0.1-1.4,0.1c-0.4,0-0.9,0-1.4-0.1c-0.5,0-1-0.1-1.4-0.2L129.7,67.8L129.7,67.8z" id="path4552"/>
<path class="st10" d="M179.3,72.1c-0.5-0.1-1-0.2-1.3-0.2c-0.4-0.1-0.7-0.1-1-0.1c-0.3,0-0.6,0-1-0.1  c-0.3,0-0.7,0-1.1,0c-1.7,0-3.1,0.3-4.4,0.8c-1.2,0.5-2.3,1.3-3.1,2.3c-0.8,1-1.4,2.2-1.8,3.5c-0.4,1.4-0.6,2.8-0.6,4.5  c0,1.6,0.2,3.1,0.7,4.2c0.5,1.2,1.1,2.1,1.9,2.9c0.8,0.7,1.8,1.3,2.9,1.6c1.1,0.3,2.3,0.5,3.6,0.5c1,0,1.9-0.1,2.8-0.2  c0.9-0.1,1.7-0.3,2.5-0.5L179.3,72.1L179.3,72.1z M179.3,95.8c-0.8,0.2-1.6,0.3-2.5,0.4c-0.9,0.1-1.9,0.2-3,0.2  c-2,0-3.8-0.2-5.6-0.7c-1.8-0.5-3.3-1.2-4.7-2.3c-1.3-1.1-2.4-2.5-3.2-4.3c-0.8-1.8-1.2-4-1.2-6.6c0-2.3,0.4-4.3,1.1-6.2  c0.7-1.9,1.8-3.5,3.1-4.9c1.4-1.4,3-2.4,4.9-3.2c1.9-0.7,4.1-1.1,6.5-1.1c2.1,0,3.9,0.1,5.4,0.3c1.5,0.2,3,0.5,4.5,0.9v38.5  c-0.4,0.1-0.9,0.1-1.4,0.2c-0.5,0-1,0.1-1.4,0.1c-0.4,0-0.9,0-1.4-0.1c-0.5,0-1-0.1-1.4-0.2L179.3,95.8L179.3,95.8z" id="path4556"/>
<path class="st10" d="M188.6,67.7c0.4-0.1,0.9-0.1,1.4-0.2c0.5,0,1-0.1,1.4-0.1c0.4,0,0.9,0,1.4,0.1  c0.5,0,1,0.1,1.4,0.2v15.4c0,1.8,0.2,3.2,0.5,4.3c0.3,1.2,0.8,2.1,1.5,2.7c0.7,0.7,1.5,1.1,2.5,1.4c1,0.3,2.1,0.4,3.4,0.4  c1.9,0,3.6-0.2,4.9-0.6V67.7c0.4-0.1,0.9-0.1,1.4-0.2c0.5,0,1-0.1,1.4-0.1c0.4,0,0.9,0,1.4,0.1c0.5,0,1,0.1,1.4,0.2v27.2  c-1.3,0.4-2.9,0.7-4.7,1c-1.8,0.3-3.7,0.5-5.7,0.5c-1.8,0-3.6-0.2-5.2-0.5c-1.6-0.3-3.1-0.9-4.3-1.9c-1.2-0.9-2.2-2.3-2.9-4  c-0.7-1.7-1.1-4-1.1-6.8L188.6,67.7L188.6,67.7z" id="path4560"/>
<path class="st10" d="M233.4,82.6c-0.6-0.1-1.3-0.1-2.2-0.2c-0.9-0.1-1.6-0.1-2.2-0.1c-2.3,0-4.1,0.4-5.4,1.3  c-1.2,0.8-1.8,2.1-1.8,3.8c0,1.1,0.2,2,0.6,2.6c0.4,0.6,0.9,1.1,1.6,1.4c0.6,0.3,1.3,0.5,2.1,0.6c0.8,0.1,1.5,0.1,2.2,0.1  c0.9,0,1.8,0,2.7-0.1c0.9-0.1,1.7-0.2,2.5-0.4L233.4,82.6L233.4,82.6z M233.4,77.3c0-2.2-0.6-3.6-1.7-4.5c-1.1-0.8-2.8-1.3-4.9-1.3  c-1.3,0-2.6,0.1-3.7,0.3c-1.2,0.2-2.3,0.5-3.4,0.8c-0.7-1.2-1.1-2.6-1.1-4.3c1.3-0.4,2.7-0.7,4.2-0.9c1.5-0.2,3-0.3,4.5-0.3  c3.8,0,6.6,0.8,8.6,2.5c2,1.7,2.9,4.3,2.9,8V95c-1.3,0.3-2.9,0.6-4.8,0.9c-1.9,0.3-3.8,0.5-5.8,0.5c-1.9,0-3.5-0.2-5-0.5  c-1.5-0.3-2.8-0.9-3.8-1.6c-1-0.7-1.8-1.7-2.4-2.8s-0.8-2.5-0.8-4.1c0-1.6,0.3-2.9,1-4.1c0.7-1.2,1.6-2.2,2.7-3  c1.1-0.8,2.4-1.4,3.9-1.8c1.5-0.4,3-0.6,4.6-0.6c1.2,0,2.2,0,3,0.1c0.8,0.1,1.4,0.1,2,0.2L233.4,77.3L233.4,77.3z" id="path4564"/>
<path class="st10" d="M243.3,90.7c1,0.4,2.1,0.7,3.4,1c1.2,0.2,2.4,0.4,3.7,0.4c0.9,0,1.7-0.1,2.5-0.3  c0.8-0.2,1.5-0.5,2.1-0.8c0.6-0.4,1.1-0.8,1.4-1.3c0.4-0.5,0.5-1.1,0.5-1.8c0-0.7-0.1-1.3-0.4-1.8c-0.3-0.5-0.7-0.9-1.1-1.2  c-0.5-0.3-1-0.6-1.6-0.9c-0.6-0.2-1.3-0.5-2-0.7l-2-0.7c-2.4-0.9-4.2-1.9-5.3-3c-1.1-1.1-1.6-2.6-1.6-4.4c0-2.5,0.9-4.4,2.7-5.9  c1.8-1.5,4.5-2.2,8.1-2.2c1.5,0,2.9,0.1,4.3,0.4c1.4,0.3,2.6,0.6,3.7,1c-0.1,0.7-0.2,1.5-0.4,2.2c-0.2,0.7-0.5,1.4-0.8,2  c-0.8-0.3-1.8-0.6-3-0.8c-1.1-0.3-2.4-0.4-3.7-0.4c-1.4,0-2.6,0.2-3.7,0.7c-1.1,0.5-1.6,1.3-1.6,2.5c0,0.6,0.1,1.1,0.4,1.6  c0.3,0.4,0.6,0.8,1.1,1.1c0.5,0.3,1,0.6,1.6,0.8c0.6,0.2,1.2,0.4,1.9,0.7l2.5,0.8c0.9,0.3,1.8,0.6,2.6,1c0.8,0.4,1.5,0.9,2.1,1.5  c0.6,0.6,1.1,1.3,1.4,2.2c0.4,0.9,0.5,1.9,0.5,3.1c0,1.3-0.3,2.6-0.8,3.7c-0.6,1.1-1.4,2.1-2.4,2.8c-1,0.8-2.3,1.4-3.8,1.8  c-1.5,0.4-3.1,0.7-4.9,0.7c-1.8,0-3.4-0.1-4.8-0.4c-1.4-0.2-2.6-0.6-3.8-1c0.1-0.7,0.2-1.5,0.5-2.2C242.7,92.2,243,91.4,243.3,90.7" id="path4568"/>
<path class="st10" d="M268.9,72.3h-4.4l-0.2-0.8L274,61h0.5V68h7.4c0.2,0.6,0.2,1.3,0.2,2.1c0,0.4,0,0.8-0.1,1.2  c0,0.4-0.1,0.7-0.2,1.1h-7.4v12.8c0,1.5,0.1,2.7,0.2,3.7c0.1,0.9,0.4,1.6,0.7,2.1c0.3,0.5,0.8,0.8,1.3,1c0.6,0.2,1.2,0.2,2.1,0.2  c0.6,0,1.2,0,1.8-0.1c0.6-0.1,1.1-0.2,1.5-0.3c0.3,0.7,0.4,1.5,0.5,2.2c0.1,0.8,0.1,1.4,0.1,2c-0.8,0.2-1.5,0.3-2.4,0.4  c-0.8,0.1-1.7,0.1-2.7,0.1c-2.7,0-4.8-0.6-6.4-1.9c-1.5-1.3-2.3-3.4-2.3-6.3L268.9,72.3L268.9,72.3z" id="path4572"/>
<text class="st10 st11 st12" transform="matrix(1 0 0 1 281.3121 59.5115)">®</text>
<path class="st14" d="M0,202.6h7.6v7.6L0,202.6z" id="path4578"/>
<path class="st14" d="M330.8,202.6h-7.6v7.6L330.8,202.6z" id="path4580"/>
<g id="g3081" transform="translate(28.376405,0)">
	<path class="st15" d="M236.3,268.7l-14.2-7.5l-14.2,7.5l2.8-15.8l-11.5-11.2l15.9-2.3l7.1-14.4l7.1,14.4l15.9,2.3   l-11.5,11.2L236.3,268.7z" id="path4347-98"/>
	<path class="st15" d="M122.9,268.7l-14.2-7.5l-14.2,7.5l2.8-15.8l-11.5-11.2l15.9-2.3l7.1-14.4l7.1,14.4l15.9,2.3   l-11.5,11.2L122.9,268.7z" id="path4349-4"/>
	<path class="st15" d="M179.6,268.7l-14.2-7.5l-14.2,7.5l2.8-15.8l-11.5-11.2l15.9-2.3l7.1-14.4l7.1,14.4l15.9,2.3   l-11.5,11.2L179.6,268.7z" id="path4351-6"/>
	<path class="st15" d="M66.1,268.7l-14.2-7.5l-14.2,7.5l2.8-15.8L29,241.7l15.9-2.3l7.1-14.4l7.1,14.4l15.9,2.3   l-11.5,11.2L66.1,268.7z" id="path5633-0"/>
</g>
</svg>